<svg xmlns="http://www.w3.org/2000/svg" xmlns:svgjs="http://svgjs.com/svgjs" xmlns:xlink="http://www.w3.org/1999/xlink" id="SvgjsSvg1006" width="1114" height="797.297" version="1.1"><defs id="SvgjsDefs1007"><marker id="SvgjsMarker1076" stroke-dasharray="0 0" markerHeight="12" markerUnits="userSpaceOnUse" markerWidth="16" orient="auto" refX="10" refY="6" viewBox="0 0 16 12"><path id="SvgjsPath1077" fill="#ff8000" stroke="#ff8000" stroke-width="1" d="M0,3 L10,6 L0,9 L0,3"/></marker><marker id="SvgjsMarker1080" stroke-dasharray="0 0" markerHeight="12" markerUnits="userSpaceOnUse" markerWidth="16" orient="auto" refX="10" refY="6" viewBox="0 0 16 12"><path id="SvgjsPath1081" fill="#ff8000" stroke="#ff8000" stroke-width="1" d="M0,3 L10,6 L0,9 L0,3"/></marker><marker id="SvgjsMarker1084" stroke-dasharray="0 0" markerHeight="12" markerUnits="userSpaceOnUse" markerWidth="16" orient="auto" refX="10" refY="6" viewBox="0 0 16 12"><path id="SvgjsPath1085" fill="#ff8000" stroke="#ff8000" stroke-width="1" d="M0,3 L10,6 L0,9 L0,3"/></marker><marker id="SvgjsMarker1088" stroke-dasharray="0 0" markerHeight="12" markerUnits="userSpaceOnUse" markerWidth="16" orient="auto" refX="10" refY="6" viewBox="0 0 16 12"><path id="SvgjsPath1089" fill="#ff8000" stroke="#ff8000" stroke-width="1" d="M0,3 L10,6 L0,9 L0,3"/></marker><marker id="SvgjsMarker1092" stroke-dasharray="0 0" markerHeight="12" markerUnits="userSpaceOnUse" markerWidth="16" orient="auto" refX="10" refY="6" viewBox="0 0 16 12"><path id="SvgjsPath1093" fill="#ff8000" stroke="#ff8000" stroke-width="1" d="M0,3 L10,6 L0,9 L0,3"/></marker><marker id="SvgjsMarker1139" stroke-dasharray="0 0" markerHeight="12" markerUnits="userSpaceOnUse" markerWidth="16" orient="auto" refX="10" refY="6" viewBox="0 0 16 12"><path id="SvgjsPath1140" fill="#ff8000" stroke="#ff8000" stroke-width="1" d="M0,3 L10,6 L0,9 L0,3"/></marker><marker id="SvgjsMarker1143" stroke-dasharray="0 0" markerHeight="12" markerUnits="userSpaceOnUse" markerWidth="16" orient="auto" refX="10" refY="6" viewBox="0 0 16 12"><path id="SvgjsPath1144" fill="#50d890" stroke="#50d890" stroke-width="1" d="M0,3 L10,6 L0,9 L0,3"/></marker><marker id="SvgjsMarker1147" stroke-dasharray="0 0" markerHeight="12" markerUnits="userSpaceOnUse" markerWidth="16" orient="auto" refX="10" refY="6" viewBox="0 0 16 12"><path id="SvgjsPath1148" fill="#50d890" stroke="#50d890" stroke-width="1" d="M0,3 L10,6 L0,9 L0,3"/></marker><marker id="SvgjsMarker1196" stroke-dasharray="0 0" markerHeight="12" markerUnits="userSpaceOnUse" markerWidth="16" orient="auto" refX="10" refY="6" viewBox="0 0 16 12"><path id="SvgjsPath1197" fill="#50d890" stroke="#50d890" stroke-width="1" d="M0,3 L10,6 L0,9 L0,3"/></marker><marker id="SvgjsMarker1208" stroke-dasharray="0 0" markerHeight="12" markerUnits="userSpaceOnUse" markerWidth="16" orient="auto" refX="10" refY="6" viewBox="0 0 16 12"><path id="SvgjsPath1209" fill="#ff8000" stroke="#ff8000" stroke-width="1" d="M0,3 L10,6 L0,9 L0,3"/></marker><marker id="SvgjsMarker1212" stroke-dasharray="0 0" markerHeight="12" markerUnits="userSpaceOnUse" markerWidth="16" orient="auto" refX="10" refY="6" viewBox="0 0 16 12"><path id="SvgjsPath1213" fill="#ff8000" stroke="#ff8000" stroke-width="1" d="M0,3 L10,6 L0,9 L0,3"/></marker><marker id="SvgjsMarker1216" stroke-dasharray="0 0" markerHeight="12" markerUnits="userSpaceOnUse" markerWidth="16" orient="auto" refX="10" refY="6" viewBox="0 0 16 12"><path id="SvgjsPath1217" fill="#ff8000" stroke="#ff8000" stroke-width="1" d="M0,3 L10,6 L0,9 L0,3"/></marker><marker id="SvgjsMarker1234" stroke-dasharray="0 0" markerHeight="12" markerUnits="userSpaceOnUse" markerWidth="16" orient="auto" refX="10" refY="6" viewBox="0 0 16 12"><path id="SvgjsPath1235" fill="#50d890" stroke="#50d890" stroke-width="1" d="M0,3 L10,6 L0,9 L0,3"/></marker><marker id="SvgjsMarker1246" stroke-dasharray="0 0" markerHeight="12" markerUnits="userSpaceOnUse" markerWidth="16" orient="auto" refX="10" refY="6" viewBox="0 0 16 12"><path id="SvgjsPath1247" fill="#ff8000" stroke="#ff8000" stroke-width="1" d="M0,3 L10,6 L0,9 L0,3"/></marker><marker id="SvgjsMarker1250" stroke-dasharray="0 0" markerHeight="12" markerUnits="userSpaceOnUse" markerWidth="16" orient="auto" refX="10" refY="6" viewBox="0 0 16 12"><path id="SvgjsPath1251" fill="#ff8000" stroke="#ff8000" stroke-width="1" d="M0,3 L10,6 L0,9 L0,3"/></marker><marker id="SvgjsMarker1272" stroke-dasharray="0 0" markerHeight="12" markerUnits="userSpaceOnUse" markerWidth="16" orient="auto" refX="16" refY="6" viewBox="0 0 16 12"><path id="SvgjsPath1273" fill="#7b88ff" stroke="#7b88ff" stroke-width="2" d="M0,2 L14,6 L0,11 L0,2"/></marker><marker id="SvgjsMarker1276" stroke-dasharray="0 0" markerHeight="12" markerUnits="userSpaceOnUse" markerWidth="16" orient="auto" refX="16" refY="6" viewBox="0 0 16 12"><path id="SvgjsPath1277" fill="#7b88ff" stroke="#7b88ff" stroke-width="2" d="M0,2 L14,6 L0,11 L0,2"/></marker><marker id="SvgjsMarker1280" stroke-dasharray="0 0" markerHeight="12" markerUnits="userSpaceOnUse" markerWidth="16" orient="auto" refX="16" refY="6" viewBox="0 0 16 12"><path id="SvgjsPath1281" fill="#7b88ff" stroke="#7b88ff" stroke-width="2" d="M0,2 L14,6 L0,11 L0,2"/></marker></defs><g id="SvgjsG1008" transform="translate(243.92920524691272,25.002025462963957)"><path id="SvgjsPath1009" fill="#fcc" fill-opacity="1" stroke="rgba(255,111,94,1)" stroke-width="2" d="M 0 0L 124.08333333333417 0L 124.08333333333417 43L 0 43Z"/><g id="SvgjsG1010"><text id="SvgjsText1011" width="105" y="11.55" fill="#323232" align="middle" anchor="middle" family="微软雅黑" font-family="微软雅黑" font-size="13" font-weight="700" opacity="1" size="13" text-anchor="middle" transform="rotate(0)" weight="700"><tspan id="SvgjsTspan1012" x="62.5" dy="16"><tspan id="SvgjsTspan1013">创建BeanA</tspan></tspan></text></g></g><g id="SvgjsG1014" transform="translate(509.9292052469127,25.00202546296373)"><path id="SvgjsPath1015" fill="#fcc" fill-opacity="1" stroke="rgba(255,111,94,1)" stroke-width="2" d="M 0 0L 124.08333333333417 0L 124.08333333333417 43L 0 43Z"/><g id="SvgjsG1016"><text id="SvgjsText1017" width="105" y="11.55" fill="#323232" align="middle" anchor="middle" family="微软雅黑" font-family="微软雅黑" font-size="13" font-weight="700" opacity="1" size="13" text-anchor="middle" transform="rotate(0)" weight="700"><tspan id="SvgjsTspan1018" x="62.5" dy="16"><tspan id="SvgjsTspan1019">创建BeanB</tspan></tspan></text></g></g><g id="SvgjsG1020" transform="translate(762.5385802469127,25.00202546296373)"><path id="SvgjsPath1021" fill="#fcc" fill-opacity="1" stroke="rgba(255,111,94,1)" stroke-width="2" d="M 0 0L 124.08333333333417 0L 124.08333333333417 43L 0 43Z"/><g id="SvgjsG1022"><text id="SvgjsText1023" width="105" y="11.55" fill="#323232" align="middle" anchor="middle" family="微软雅黑" font-family="微软雅黑" font-size="13" font-weight="700" opacity="1" size="13" text-anchor="middle" transform="rotate(0)" weight="700"><tspan id="SvgjsTspan1024" x="62.5" dy="16"><tspan id="SvgjsTspan1025">创建BeanA</tspan></tspan></text></g></g><g id="SvgjsG1026" transform="translate(411.7755594135799,526.3392469059888)"><path id="SvgjsPath1027" fill="#e3e7f1" fill-opacity="1" stroke="rgba(123,136,255,1)" stroke-width="2" d="M 0 4Q 0 0 4 0L 316.390625 0Q 320.390625 0 320.390625 4L 320.390625 220.00247763104744Q 320.390625 224.00247763104744 316.390625 224.00247763104744L 4 224.00247763104744Q 0 224.00247763104744 0 220.00247763104744Z"/></g><g id="SvgjsG1032" transform="translate(454.7755594135799,563.3417245370363)"><path id="SvgjsPath1033" fill="#e3e7f1" fill-opacity="1" stroke="rgba(123,136,255,1)" stroke-width="2" d="M 0 4Q 0 0 4 0L 230.390625 0Q 234.390625 0 234.390625 4L 234.390625 34.00247763104744Q 234.390625 38.00247763104744 230.390625 38.00247763104744L 4 38.00247763104744Q 0 38.00247763104744 0 34.00247763104744Z"/><g id="SvgjsG1034"><text id="SvgjsText1035" width="215" y="9.051" fill="#323232" align="middle" anchor="middle" family="微软雅黑" font-family="微软雅黑" font-size="13" font-weight="700" opacity="1" size="13" text-anchor="middle" transform="rotate(0)" weight="700"><tspan id="SvgjsTspan1036" x="117.5" dy="16"><tspan id="SvgjsTspan1037">一级缓存singletonObjects</tspan></tspan></text></g></g><g id="SvgjsG1038" transform="translate(454.7755594135799,625.3417245370363)"><path id="SvgjsPath1039" fill="#e3e7f1" fill-opacity="1" stroke="rgba(123,136,255,1)" stroke-width="2" d="M 0 4Q 0 0 4 0L 230.390625 0Q 234.390625 0 234.390625 4L 234.390625 34.00247763104744Q 234.390625 38.00247763104744 230.390625 38.00247763104744L 4 38.00247763104744Q 0 38.00247763104744 0 34.00247763104744Z"/><g id="SvgjsG1040"><text id="SvgjsText1041" width="215" y="9.051" fill="#323232" align="middle" anchor="middle" family="微软雅黑" font-family="微软雅黑" font-size="13" font-weight="700" opacity="1" size="13" text-anchor="middle" transform="rotate(0)" weight="700"><tspan id="SvgjsTspan1042" x="117.5" dy="16"><tspan id="SvgjsTspan1043">二级缓存earlySingletonObjects</tspan></tspan></text></g></g><g id="SvgjsG1044" transform="translate(454.7755594135799,690.3417245370367)"><path id="SvgjsPath1045" fill="#e3e7f1" fill-opacity="1" stroke="rgba(123,136,255,1)" stroke-width="2" d="M 0 4Q 0 0 4 0L 230.390625 0Q 234.390625 0 234.390625 4L 234.390625 34.00247763104744Q 234.390625 38.00247763104744 230.390625 38.00247763104744L 4 38.00247763104744Q 0 38.00247763104744 0 34.00247763104744Z"/><g id="SvgjsG1046"><text id="SvgjsText1047" width="215" y="9.051" fill="#323232" align="middle" anchor="middle" family="微软雅黑" font-family="微软雅黑" font-size="13" font-weight="700" opacity="1" size="13" text-anchor="middle" transform="rotate(0)" weight="700"><tspan id="SvgjsTspan1048" x="117.5" dy="16"><tspan id="SvgjsTspan1049">三级缓存singletonFactories</tspan></tspan></text></g></g><g id="SvgjsG1050" transform="translate(521.9708719135799,531.8417245370363)"><path id="SvgjsPath1051" fill="none" stroke="none" d="M 0 0L 100 0L 100 25L 0 25Z"/><g id="SvgjsG1052"><text id="SvgjsText1053" width="100" y="2.55" fill="#323232" align="middle" anchor="middle" family="微软雅黑" font-family="微软雅黑" font-size="13" font-weight="700" opacity="1" size="13" text-anchor="middle" transform="rotate(0)" weight="700"><tspan id="SvgjsTspan1054" x="50" dy="16"><tspan id="SvgjsTspan1055">三级缓存</tspan></tspan></text></g></g><g id="SvgjsG1056" transform="translate(253.5333719135799,128.52097196248974)"><path id="SvgjsPath1057" fill="#ffe6cc" fill-opacity="1" stroke="rgba(255,111,94,1)" stroke-width="2" d="M 0 0L 104.875 0L 104.875 33.67939814814781L 0 33.67939814814781Z"/><g id="SvgjsG1058"><text id="SvgjsText1059" width="85" y="6.89" fill="#323232" align="middle" anchor="middle" family="微软雅黑" font-family="微软雅黑" font-size="13" font-weight="700" opacity="1" size="13" text-anchor="middle" transform="rotate(0)" weight="700"><tspan id="SvgjsTspan1060" x="52.5" dy="16"><tspan id="SvgjsTspan1061">doGetBean</tspan></tspan></text></g></g><g id="SvgjsG1062" transform="translate(519.5333719135799,128.52097196248974)"><path id="SvgjsPath1063" fill="#ffe6cc" fill-opacity="1" stroke="rgba(255,111,94,1)" stroke-width="2" d="M 0 0L 104.875 0L 104.875 33.67939814814781L 0 33.67939814814781Z"/><g id="SvgjsG1064"><text id="SvgjsText1065" width="85" y="6.89" fill="#323232" align="middle" anchor="middle" family="微软雅黑" font-family="微软雅黑" font-size="13" font-weight="700" opacity="1" size="13" text-anchor="middle" transform="rotate(0)" weight="700"><tspan id="SvgjsTspan1066" x="52.5" dy="16"><tspan id="SvgjsTspan1067">doGetBean</tspan></tspan></text></g></g><g id="SvgjsG1068" transform="translate(772.1427469135799,128.52097196248974)"><path id="SvgjsPath1069" fill="#ffe6cc" fill-opacity="1" stroke="rgba(255,111,94,1)" stroke-width="2" d="M 0 0L 104.875 0L 104.875 33.67939814814781L 0 33.67939814814781Z"/><g id="SvgjsG1070"><text id="SvgjsText1071" width="85" y="6.89" fill="#323232" align="middle" anchor="middle" family="微软雅黑" font-family="微软雅黑" font-size="13" font-weight="700" opacity="1" size="13" text-anchor="middle" transform="rotate(0)" weight="700"><tspan id="SvgjsTspan1072" x="52.5" dy="16"><tspan id="SvgjsTspan1073">doGetBean</tspan></tspan></text></g></g><g id="SvgjsG1074"><path id="SvgjsPath1075" fill="none" stroke="#ff8000" stroke-width="1" marker-end="url(#SvgjsMarker1076)" d="M305.9708719135799 68.00202546296418L305.9708719135799 98.26149871272696L305.9708719135799 98.26149871272696L305.9708719135799 128.52097196248974"/></g><g id="SvgjsG1078"><path id="SvgjsPath1079" fill="none" stroke="#ff8000" stroke-width="1" marker-end="url(#SvgjsMarker1080)" d="M571.9708719135799 68.00202546296373L571.9708719135799 98.26149871272696L571.9708719135799 98.26149871272696L571.9708719135799 128.52097196248974"/></g><g id="SvgjsG1082"><path id="SvgjsPath1083" fill="none" stroke="#ff8000" stroke-width="1" marker-end="url(#SvgjsMarker1084)" d="M824.5802469135799 68.00202546296373L824.5802469135799 98.26149871272696L824.5802469135799 98.26149871272696L824.5802469135799 128.52097196248974"/></g><g id="SvgjsG1086"><path id="SvgjsPath1087" fill="none" stroke="#ff8000" stroke-width="1" marker-end="url(#SvgjsMarker1088)" d="M253.5333719135799 145.36067103656364C 55.14069587264311 145.36067103656364 32.01253858024694 626.3417245370363 412.0125385802469 615.3417245370363"/></g><g id="SvgjsG1090"><path id="SvgjsPath1091" fill="none" stroke="#ff8000" stroke-width="1" marker-end="url(#SvgjsMarker1092)" d="M412.0125385802469 616.3417245370363C 117.01253858024694 627.3417245370363 54.761623810877325 145.36067103656364 253.5333719135799 145.36067103656364"/></g><g id="SvgjsG1094" transform="translate(33.58121141975306,410.34172453703627)"><path id="SvgjsPath1095" fill="none" stroke="none" d="M 0 0L 120 0L 120 40L 0 40Z"/><g id="SvgjsG1096"><text id="SvgjsText1097" width="120" y="2.05" fill="#ff6f5e" align="middle" anchor="middle" family="微软雅黑" font-family="微软雅黑" font-size="13" font-weight="700" opacity="1" size="13" text-anchor="middle" transform="rotate(0)" weight="700"><tspan id="SvgjsTspan1098" x="60" dy="16"><tspan id="SvgjsTspan1099">第一次从缓存中</tspan></tspan><tspan id="SvgjsTspan1100" x="60" dy="16"><tspan id="SvgjsTspan1101">获取BeanA</tspan></tspan></text></g></g><g id="SvgjsG1102" transform="translate(87.92920524691277,337.68127288841583)"><path id="SvgjsPath1103" fill="none" stroke="none" d="M 0 0L 120 0L 120 40L 0 40Z"/><g id="SvgjsG1104"><text id="SvgjsText1105" width="120" y="10.05" fill="#ff6f5e" align="middle" anchor="middle" family="微软雅黑" font-family="微软雅黑" font-size="13" font-weight="700" opacity="1" size="13" text-anchor="middle" transform="rotate(0)" weight="700"><tspan id="SvgjsTspan1106" x="60" dy="16"><tspan id="SvgjsTspan1107">未获取到</tspan></tspan></text></g></g><g id="SvgjsG1108" transform="translate(205.90837191357986,235.1601502032297)"><path id="SvgjsPath1109" fill="#effffb" fill-opacity="1" stroke="rgba(80,216,144,1)" stroke-width="2" d="M 0 0L 200.125 0L 200.125 215.1815743338068L 0 215.1815743338068Z"/></g><g id="SvgjsG1112" transform="translate(240.37712191357986,284.98292824074065)"><path id="SvgjsPath1113" fill="#effffb" fill-opacity="1" stroke="rgba(80,216,144,1)" stroke-width="2" d="M 0 0L 139.125 0L 139.125 31.67939814814781L 0 31.67939814814781Z"/><g id="SvgjsG1114"><text id="SvgjsText1115" width="120" y="5.89" fill="#323232" align="middle" anchor="middle" family="微软雅黑" font-family="微软雅黑" font-size="13" font-weight="700" opacity="1" size="13" text-anchor="middle" transform="rotate(0)" weight="700"><tspan id="SvgjsTspan1116" x="70" dy="16"><tspan id="SvgjsTspan1117">实例化instantiate</tspan></tspan></text></g></g><g id="SvgjsG1118" transform="translate(240.37712191357986,341.8415738143419)"><path id="SvgjsPath1119" fill="#effffb" fill-opacity="1" stroke="rgba(80,216,144,1)" stroke-width="2" d="M 0 0L 139.125 0L 139.125 31.67939814814781L 0 31.67939814814781Z"/><g id="SvgjsG1120"><text id="SvgjsText1121" width="120" y="5.89" fill="#323232" align="middle" anchor="middle" family="微软雅黑" font-family="微软雅黑" font-size="13" font-weight="700" opacity="1" size="13" text-anchor="middle" transform="rotate(0)" weight="700"><tspan id="SvgjsTspan1122" x="70" dy="16"><tspan id="SvgjsTspan1123">添加三级缓存</tspan></tspan></text></g></g><g id="SvgjsG1124" transform="translate(240.37712191357986,399.98292824074065)"><path id="SvgjsPath1125" fill="#effffb" fill-opacity="1" stroke="rgba(80,216,144,1)" stroke-width="2" d="M 0 0L 139.125 0L 139.125 31.67939814814781L 0 31.67939814814781Z"/><g id="SvgjsG1126"><text id="SvgjsText1127" width="120" y="5.89" fill="#323232" align="middle" anchor="middle" family="微软雅黑" font-family="微软雅黑" font-size="13" font-weight="700" opacity="1" size="13" text-anchor="middle" transform="rotate(0)" weight="700"><tspan id="SvgjsTspan1128" x="70" dy="16"><tspan id="SvgjsTspan1129">属性填充</tspan><tspan id="SvgjsTspan1130" style="font-size:inherit">populate</tspan></tspan></text></g></g><g id="SvgjsG1131" transform="translate(249.9396219135799,239.34172453703627)"><path id="SvgjsPath1132" fill="none" stroke="none" d="M 0 0L 120 0L 120 40L 0 40Z"/><g id="SvgjsG1133"><text id="SvgjsText1134" width="120" y="10.05" fill="#323232" align="middle" anchor="middle" family="微软雅黑" font-family="微软雅黑" font-size="13" font-weight="700" opacity="1" size="13" text-anchor="middle" transform="rotate(0)" weight="700"><tspan id="SvgjsTspan1135" x="60" dy="16"><tspan id="SvgjsTspan1136">doCreateBean</tspan></tspan></text></g></g><g id="SvgjsG1137"><path id="SvgjsPath1138" fill="none" stroke="#ff8000" stroke-width="1" marker-end="url(#SvgjsMarker1139)" d="M305.9708719135799 162.20037011063755C 305.9708719135799 191.3842821476744 305.9708719135799 205.97623816619284 305.9708719135799 235.1601502032297"/></g><g id="SvgjsG1141"><path id="SvgjsPath1142" fill="none" stroke="#50d890" stroke-width="1" marker-end="url(#SvgjsMarker1143)" d="M240.37712191357986 357.68127288841583C 25.01253858024694 513.3417245370363 286.0125385802469 772.3417245370363 454.7755594135799 709.3429633525604"/></g><g id="SvgjsG1145"><path id="SvgjsPath1146" fill="none" stroke="#50d890" stroke-width="1" marker-end="url(#SvgjsMarker1147)" d="M379.5021219135799 415.82262731481455C 480.0125385802469 368.34172453703627 353.25939653110254 46.50202546296373 509.9292052469127 46.50202546296373"/></g><g id="SvgjsG1149" transform="translate(148.58121141975317,621.3417245370363)"><path id="SvgjsPath1150" fill="none" stroke="none" d="M 0 0L 120 0L 120 40L 0 40Z"/><g id="SvgjsG1151"><text id="SvgjsText1152" width="120" y="2.05" fill="#50d890" align="middle" anchor="middle" family="微软雅黑" font-family="微软雅黑" font-size="13" font-weight="700" opacity="1" size="13" text-anchor="middle" transform="rotate(0)" weight="700"><tspan id="SvgjsTspan1153" x="60" dy="16"><tspan id="SvgjsTspan1154">将BeanA工厂对象</tspan></tspan><tspan id="SvgjsTspan1155" x="60" dy="16"><tspan id="SvgjsTspan1156">放入三级缓存</tspan></tspan></text></g></g><g id="SvgjsG1157" transform="translate(340.9396219135799,77.52097196248974)"><path id="SvgjsPath1158" fill="none" stroke="none" d="M 0 0L 120 0L 120 40L 0 40Z"/><g id="SvgjsG1159"><text id="SvgjsText1160" width="120" y="2.05" fill="#50d890" align="middle" anchor="middle" family="微软雅黑" font-family="微软雅黑" font-size="13" font-weight="700" opacity="1" size="13" text-anchor="middle" transform="rotate(0)" weight="700"><tspan id="SvgjsTspan1161" x="60" dy="16"><tspan id="SvgjsTspan1162">属性填充</tspan></tspan><tspan id="SvgjsTspan1163" x="60" dy="16"><tspan id="SvgjsTspan1164">依赖BeanB</tspan></tspan></text></g></g><g id="SvgjsG1165" transform="translate(471.9083719135799,235.1601502032297)"><path id="SvgjsPath1166" fill="#effffb" fill-opacity="1" stroke="rgba(80,216,144,1)" stroke-width="2" d="M 0 0L 200.125 0L 200.125 215.1815743338068L 0 215.1815743338068Z"/></g><g id="SvgjsG1169" transform="translate(506.3771219135799,284.98292824074065)"><path id="SvgjsPath1170" fill="#effffb" fill-opacity="1" stroke="rgba(80,216,144,1)" stroke-width="2" d="M 0 0L 139.125 0L 139.125 31.67939814814781L 0 31.67939814814781Z"/><g id="SvgjsG1171"><text id="SvgjsText1172" width="120" y="5.89" fill="#323232" align="middle" anchor="middle" family="微软雅黑" font-family="微软雅黑" font-size="13" font-weight="700" opacity="1" size="13" text-anchor="middle" transform="rotate(0)" weight="700"><tspan id="SvgjsTspan1173" x="70" dy="16"><tspan id="SvgjsTspan1174">实例化instantiate</tspan></tspan></text></g></g><g id="SvgjsG1175" transform="translate(506.3771219135799,341.8415738143419)"><path id="SvgjsPath1176" fill="#effffb" fill-opacity="1" stroke="rgba(80,216,144,1)" stroke-width="2" d="M 0 0L 139.125 0L 139.125 31.67939814814781L 0 31.67939814814781Z"/><g id="SvgjsG1177"><text id="SvgjsText1178" width="120" y="5.89" fill="#323232" align="middle" anchor="middle" family="微软雅黑" font-family="微软雅黑" font-size="13" font-weight="700" opacity="1" size="13" text-anchor="middle" transform="rotate(0)" weight="700"><tspan id="SvgjsTspan1179" x="70" dy="16"><tspan id="SvgjsTspan1180">添加三级缓存</tspan></tspan></text></g></g><g id="SvgjsG1181" transform="translate(506.3771219135799,399.98292824074065)"><path id="SvgjsPath1182" fill="#effffb" fill-opacity="1" stroke="rgba(80,216,144,1)" stroke-width="2" d="M 0 0L 139.125 0L 139.125 31.67939814814781L 0 31.67939814814781Z"/><g id="SvgjsG1183"><text id="SvgjsText1184" width="120" y="5.89" fill="#323232" align="middle" anchor="middle" family="微软雅黑" font-family="微软雅黑" font-size="13" font-weight="700" opacity="1" size="13" text-anchor="middle" transform="rotate(0)" weight="700"><tspan id="SvgjsTspan1185" x="70" dy="16"><tspan id="SvgjsTspan1186">属性填充</tspan><tspan id="SvgjsTspan1187" style="font-size:inherit">populate</tspan></tspan></text></g></g><g id="SvgjsG1188" transform="translate(515.9396219135799,239.34172453703627)"><path id="SvgjsPath1189" fill="none" stroke="none" d="M 0 0L 120 0L 120 40L 0 40Z"/><g id="SvgjsG1190"><text id="SvgjsText1191" width="120" y="10.05" fill="#323232" align="middle" anchor="middle" family="微软雅黑" font-family="微软雅黑" font-size="13" font-weight="700" opacity="1" size="13" text-anchor="middle" transform="rotate(0)" weight="700"><tspan id="SvgjsTspan1192" x="60" dy="16"><tspan id="SvgjsTspan1193">doCreateBean</tspan></tspan></text></g></g><g id="SvgjsG1194"><path id="SvgjsPath1195" fill="none" stroke="#50d890" stroke-width="1" marker-end="url(#SvgjsMarker1196)" d="M506.3771219135799 357.68127288841583C 446.0125385802469 443.34172453703627 277.0125385802469 530.3417245370363 454.7755594135799 709.3429633525604"/></g><g id="SvgjsG1198" transform="translate(307.8875385802469,474.52097196248974)"><path id="SvgjsPath1199" fill="none" stroke="none" d="M 0 0L 120 0L 120 40L 0 40Z"/><g id="SvgjsG1200"><text id="SvgjsText1201" width="120" y="2.05" fill="#50d890" align="middle" anchor="middle" family="微软雅黑" font-family="微软雅黑" font-size="13" font-weight="700" opacity="1" size="13" text-anchor="middle" transform="rotate(0)" weight="700"><tspan id="SvgjsTspan1202" x="60" dy="16"><tspan id="SvgjsTspan1203">属性填充</tspan></tspan><tspan id="SvgjsTspan1204" x="60" dy="16"><tspan id="SvgjsTspan1205">依赖BeanB</tspan></tspan></text></g></g><g id="SvgjsG1206"><path id="SvgjsPath1207" fill="none" stroke="#ff8000" stroke-width="1" marker-end="url(#SvgjsMarker1208)" d="M571.9708719135799 162.20037011063755L571.9708719135799 235.1601502032297"/></g><g id="SvgjsG1210"><path id="SvgjsPath1211" fill="none" stroke="#ff8000" stroke-width="1" marker-end="url(#SvgjsMarker1212)" d="M624.4083719135799 145.36067103656364C 782.0125385802469 225.34172453703627 804.0125385802469 392.34172453703627 714.0125385802469 526.3417245370363"/></g><g id="SvgjsG1214"><path id="SvgjsPath1215" fill="none" stroke="#ff8000" stroke-width="1" marker-end="url(#SvgjsMarker1216)" d="M694.0125385802469 526.3417245370363C 770.0125385802469 380.34172453703627 779.3232146594917 145.36067103656364 624.4083719135799 145.36067103656364"/></g><g id="SvgjsG1218" transform="translate(726.5812114197531,427.34172453703627)"><path id="SvgjsPath1219" fill="none" stroke="none" d="M 0 0L 120 0L 120 40L 0 40Z"/><g id="SvgjsG1220"><text id="SvgjsText1221" width="120" y="2.05" fill="#ff6f5e" align="middle" anchor="middle" family="微软雅黑" font-family="微软雅黑" font-size="13" font-weight="700" opacity="1" size="13" text-anchor="middle" transform="rotate(0)" weight="700"><tspan id="SvgjsTspan1222" x="60" dy="16"><tspan id="SvgjsTspan1223">第一次从缓存中</tspan></tspan><tspan id="SvgjsTspan1224" x="60" dy="16"><tspan id="SvgjsTspan1225">获取BeanB</tspan></tspan></text></g></g><g id="SvgjsG1226" transform="translate(668.9292052469127,354.68127288841583)"><path id="SvgjsPath1227" fill="none" stroke="none" d="M 0 0L 120 0L 120 40L 0 40Z"/><g id="SvgjsG1228"><text id="SvgjsText1229" width="120" y="10.05" fill="#ff6f5e" align="middle" anchor="middle" family="微软雅黑" font-family="微软雅黑" font-size="13" font-weight="700" opacity="1" size="13" text-anchor="middle" transform="rotate(0)" weight="700"><tspan id="SvgjsTspan1230" x="60" dy="16"><tspan id="SvgjsTspan1231">未获取到</tspan></tspan></text></g></g><g id="SvgjsG1232"><path id="SvgjsPath1233" fill="none" stroke="#50d890" stroke-width="1" marker-end="url(#SvgjsMarker1234)" d="M645.5021219135799 415.82262731481455C 760.0125385802469 387.34172453703627 607.5700727202939 46.50202546296373 762.5385802469127 46.50202546296373"/></g><g id="SvgjsG1236" transform="translate(599.0125385802469,77.52097196248974)"><path id="SvgjsPath1237" fill="none" stroke="none" d="M 0 0L 120 0L 120 40L 0 40Z"/><g id="SvgjsG1238"><text id="SvgjsText1239" width="120" y="2.05" fill="#50d890" align="middle" anchor="middle" family="微软雅黑" font-family="微软雅黑" font-size="13" font-weight="700" opacity="1" size="13" text-anchor="middle" transform="rotate(0)" weight="700"><tspan id="SvgjsTspan1240" x="60" dy="16"><tspan id="SvgjsTspan1241">属性填充</tspan></tspan><tspan id="SvgjsTspan1242" x="60" dy="16"><tspan id="SvgjsTspan1243">依赖BeanA</tspan></tspan></text></g></g><g id="SvgjsG1244"><path id="SvgjsPath1245" fill="none" stroke="#ff8000" stroke-width="1" marker-end="url(#SvgjsMarker1246)" d="M877.0177469135799 145.36067103656364C 1004.0125385802469 237.34172453703627 921.8812861580157 597.3417245370363 732.0125385802469 597.3417245370363"/></g><g id="SvgjsG1248"><path id="SvgjsPath1249" fill="none" stroke="#ff8000" stroke-width="1" marker-end="url(#SvgjsMarker1250)" d="M732.0125385802469 629.3417245370363C 957.0125385802469 615.3417245370363 1089.0125385802469 235.34172453703627 877.0177469135799 145.36067103656364"/></g><g id="SvgjsG1252" transform="translate(853.5812114197531,365.34172453703627)"><path id="SvgjsPath1253" fill="none" stroke="none" d="M 0 0L 120 0L 120 40L 0 40Z"/><g id="SvgjsG1254"><text id="SvgjsText1255" width="120" y="2.05" fill="#ff6f5e" align="middle" anchor="middle" family="微软雅黑" font-family="微软雅黑" font-size="13" font-weight="700" opacity="1" size="13" text-anchor="middle" transform="rotate(0)" weight="700"><tspan id="SvgjsTspan1256" x="60" dy="16"><tspan id="SvgjsTspan1257">第二次从缓存中</tspan></tspan><tspan id="SvgjsTspan1258" x="60" dy="16"><tspan id="SvgjsTspan1259">获取BeanA</tspan></tspan></text></g></g><g id="SvgjsG1260" transform="translate(913.3562885802469,459.34172453703627)"><path id="SvgjsPath1261" fill="none" stroke="none" d="M 0 0L 120 0L 120 40L 0 40Z"/><g id="SvgjsG1262"><text id="SvgjsText1263" width="120" y="-5.95" fill="#ff6f5e" align="middle" anchor="middle" family="微软雅黑" font-family="微软雅黑" font-size="13" font-weight="700" opacity="1" size="13" text-anchor="middle" transform="rotate(0)" weight="700"><tspan id="SvgjsTspan1264" x="60" dy="16"><tspan id="SvgjsTspan1265">从三级缓存中获取</tspan></tspan><tspan id="SvgjsTspan1266" x="60" dy="16"><tspan id="SvgjsTspan1267">到了BeanA的早期</tspan></tspan><tspan id="SvgjsTspan1268" x="60" dy="16"><tspan id="SvgjsTspan1269">实例</tspan></tspan></text></g></g><g id="SvgjsG1270"><path id="SvgjsPath1271" fill="none" stroke="#7b88ff" stroke-width="2" marker-end="url(#SvgjsMarker1272)" d="M848.0125385802469 129.34172453703627C 848.0125385802469 104.54172453703609 848.0125385802469 92.14172453703645 848.0125385802469 67.34172453703627"/></g><g id="SvgjsG1274"><path id="SvgjsPath1275" fill="none" stroke="#7b88ff" stroke-width="2" marker-end="url(#SvgjsMarker1276)" d="M571.9708719135799 450.34172453703627C 571.9708719135799 528.5576183690189 422.0125385802469 468.34172453703627 379.5021219135799 415.82262731481455"/></g><g id="SvgjsG1278"><path id="SvgjsPath1279" fill="none" stroke="#7b88ff" stroke-width="2" marker-end="url(#SvgjsMarker1280)" d="M762.9517695922957 58.64713182636865C 692.0125385802469 110.34172453703627 773.0125385802469 354.34172453703627 645.5021219135799 415.82262731481455"/></g><g id="SvgjsG1282" transform="translate(857.6219135802469,90.34172453703627)"><path id="SvgjsPath1283" fill="none" stroke="none" d="M 0 0L 45 0L 45 23L 0 23Z"/><g id="SvgjsG1284"><text id="SvgjsText1285" width="45" y="1.55" fill="#7b88ff" align="middle" anchor="middle" family="微软雅黑" font-family="微软雅黑" font-size="13" font-weight="700" opacity="1" size="13" text-anchor="middle" transform="rotate(0)" weight="700"><tspan id="SvgjsTspan1286" x="22.5" dy="16"><tspan id="SvgjsTspan1287">返回</tspan></tspan></text></g></g><g id="SvgjsG1288" transform="translate(706.4292052469127,113.34172453703627)"><path id="SvgjsPath1289" fill="none" stroke="none" d="M 0 0L 45 0L 45 23L 0 23Z"/><g id="SvgjsG1290"><text id="SvgjsText1291" width="45" y="1.55" fill="#7b88ff" align="middle" anchor="middle" family="微软雅黑" font-family="微软雅黑" font-size="13" font-weight="700" opacity="1" size="13" text-anchor="middle" transform="rotate(0)" weight="700"><tspan id="SvgjsTspan1292" x="22.5" dy="16"><tspan id="SvgjsTspan1293">返回</tspan></tspan></text></g></g><g id="SvgjsG1294" transform="translate(470.9396219135799,483.02097196248974)"><path id="SvgjsPath1295" fill="none" stroke="none" d="M 0 0L 45 0L 45 23L 0 23Z"/><g id="SvgjsG1296"><text id="SvgjsText1297" width="45" y="1.55" fill="#7b88ff" align="middle" anchor="middle" family="微软雅黑" font-family="微软雅黑" font-size="13" font-weight="700" opacity="1" size="13" text-anchor="middle" transform="rotate(0)" weight="700"><tspan id="SvgjsTspan1298" x="22.5" dy="16"><tspan id="SvgjsTspan1299">返回</tspan></tspan></text></g></g></svg>