<svg xmlns="http://www.w3.org/2000/svg" xmlns:xlink="http://www.w3.org/1999/xlink" viewBox="0 0 1500 650"><g id="graph0" class="graph" transform="scale(4.1667 4.1667) rotate(0) translate(4 152)"><title>%3</title><polygon fill="#fff" stroke="transparent" points="-4 4 -4 -152 357 -152 357 4 -4 4"/><g id="node1" class="node"><title>table0</title><polyline fill="none" stroke="#000" points="8 -124 80 -124"/><text x="41.276" y="-129.8" fill="#000" font-family="Times,serif" font-size="14" text-anchor="start">s</text><polygon fill="none" stroke="#000" points="8 -104 8 -124 44 -124 44 -104 8 -104"/><text x="10.841" y="-109.8" fill="#000" font-family="Times,serif" font-size="14" text-anchor="start">name</text><polygon fill="none" stroke="#000" points="44 -104 44 -124 80 -124 80 -104 44 -104"/><text x="46.841" y="-109.8" fill="#000" font-family="Times,serif" font-size="14" text-anchor="start">value</text><polygon fill="none" stroke="#000" points="8 -84 8 -104 44 -104 44 -84 8 -84"/><text x="18.224" y="-89.8" fill="#000" font-family="Times,serif" font-size="14" text-anchor="start">ptr</text><polygon fill="none" stroke="#000" points="44 -84 44 -104 80 -104 80 -84 44 -84"/></g><g id="node2" class="node"><title>table1</title><polyline fill="none" stroke="#000" points="132 -124 220 -124"/><text x="169.776" y="-129.8" fill="#000" font-family="Times,serif" font-size="14" text-anchor="start">s1</text><polygon fill="none" stroke="#000" points="132 -104 132 -124 184 -124 184 -104 132 -104"/><text x="142.841" y="-109.8" fill="#000" font-family="Times,serif" font-size="14" text-anchor="start">name</text><polygon fill="none" stroke="#000" points="184 -104 184 -124 220 -124 220 -104 184 -104"/><text x="186.841" y="-109.8" fill="#000" font-family="Times,serif" font-size="14" text-anchor="start">value</text><polygon fill="none" stroke="#000" points="132 -84 132 -104 184 -104 184 -84 132 -84"/><text x="150.224" y="-89.8" fill="#000" font-family="Times,serif" font-size="14" text-anchor="start">ptr</text><polygon fill="none" stroke="#000" points="184 -84 184 -104 220 -104 220 -84 184 -84"/><polygon fill="none" stroke="#000" points="132 -64 132 -84 184 -84 184 -64 132 -64"/><text x="149.448" y="-69.8" fill="#000" font-family="Times,serif" font-size="14" text-anchor="start">len</text><polygon fill="none" stroke="#000" points="184 -64 184 -84 220 -84 220 -64 184 -64"/><text x="198.5" y="-69.8" fill="#000" font-family="Times,serif" font-size="14" text-anchor="start">5</text><polygon fill="none" stroke="#000" points="132 -44 132 -64 184 -64 184 -44 132 -44"/><text x="134.683" y="-49.8" fill="#000" font-family="Times,serif" font-size="14" text-anchor="start">capacity</text><polygon fill="none" stroke="#000" points="184 -44 184 -64 220 -64 220 -44 184 -44"/><text x="198.5" y="-49.8" fill="#000" font-family="Times,serif" font-size="14" text-anchor="start">5</text></g><g id="edge2" class="edge"><title>table0:c-&gt;table1:borrowee</title><path fill="none" stroke="#000" d="M62,-94C62,-94 93.1184,-94 121.9514,-94"/><polygon fill="#000" stroke="#000" points="122 -97.5 132 -94 122 -90.5 122 -97.5"/></g><g id="node3" class="node"><title>table2</title><polygon fill="none" stroke="#000" points="272.5 -104 272.5 -124 309.5 -124 309.5 -104 272.5 -104"/><text x="275.448" y="-109.8" fill="#000" font-family="Times,serif" font-size="14" text-anchor="start">index</text><polygon fill="none" stroke="#000" points="309.5 -104 309.5 -124 345.5 -124 345.5 -104 309.5 -104"/><text x="312.341" y="-109.8" fill="#000" font-family="Times,serif" font-size="14" text-anchor="start">value</text><polygon fill="none" stroke="#000" points="272.5 -84 272.5 -104 309.5 -104 309.5 -84 272.5 -84"/><text x="287.5" y="-89.8" fill="#000" font-family="Times,serif" font-size="14" text-anchor="start">0</text><polygon fill="none" stroke="#000" points="309.5 -84 309.5 -104 345.5 -104 345.5 -84 309.5 -84"/><text x="324" y="-89.8" fill="#000" font-family="Times,serif" font-size="14" text-anchor="start">h</text><polygon fill="none" stroke="#000" points="272.5 -64 272.5 -84 309.5 -84 309.5 -64 272.5 -64"/><text x="287.5" y="-69.8" fill="#000" font-family="Times,serif" font-size="14" text-anchor="start">1</text><polygon fill="none" stroke="#000" points="309.5 -64 309.5 -84 345.5 -84 345.5 -64 309.5 -64"/><text x="324.393" y="-69.8" fill="#000" font-family="Times,serif" font-size="14" text-anchor="start">e</text><polygon fill="none" stroke="#000" points="272.5 -44 272.5 -64 309.5 -64 309.5 -44 272.5 -44"/><text x="287.5" y="-49.8" fill="#000" font-family="Times,serif" font-size="14" text-anchor="start">2</text><polygon fill="none" stroke="#000" points="309.5 -44 309.5 -64 345.5 -64 345.5 -44 309.5 -44"/><text x="325.555" y="-49.8" fill="#000" font-family="Times,serif" font-size="14" text-anchor="start">l</text><polygon fill="none" stroke="#000" points="272.5 -24 272.5 -44 309.5 -44 309.5 -24 272.5 -24"/><text x="287.5" y="-29.8" fill="#000" font-family="Times,serif" font-size="14" text-anchor="start">3</text><polygon fill="none" stroke="#000" points="309.5 -24 309.5 -44 345.5 -44 345.5 -24 309.5 -24"/><text x="325.555" y="-29.8" fill="#000" font-family="Times,serif" font-size="14" text-anchor="start">l</text><polygon fill="none" stroke="#000" points="272.5 -4 272.5 -24 309.5 -24 309.5 -4 272.5 -4"/><text x="287.5" y="-9.8" fill="#000" font-family="Times,serif" font-size="14" text-anchor="start">4</text><polygon fill="none" stroke="#000" points="309.5 -4 309.5 -24 345.5 -24 345.5 -4 309.5 -4"/><text x="324" y="-9.8" fill="#000" font-family="Times,serif" font-size="14" text-anchor="start">o</text></g><g id="edge1" class="edge"><title>table1:c-&gt;table2:pointee</title><path fill="none" stroke="#000" d="M202,-94C202,-94 233.3406,-94 262.3797,-94"/><polygon fill="#000" stroke="#000" points="262.5 -97.5 272.5 -94 262.5 -90.5 262.5 -97.5"/></g></g></svg>