<svg xmlns="http://www.w3.org/2000/svg" xmlns:svgjs="http://svgjs.com/svgjs" xmlns:xlink="http://www.w3.org/1999/xlink" id="SvgjsSvg1006" width="1189.797" height="842.578" version="1.1"><defs id="SvgjsDefs1007"><marker id="SvgjsMarker1076" stroke-dasharray="0 0" markerHeight="12" markerUnits="userSpaceOnUse" markerWidth="16" orient="auto" refX="10" refY="6" viewBox="0 0 16 12"><path id="SvgjsPath1077" fill="#ff8000" stroke="#ff8000" stroke-width="1" d="M0,3 L10,6 L0,9 L0,3"/></marker><marker id="SvgjsMarker1080" stroke-dasharray="0 0" markerHeight="12" markerUnits="userSpaceOnUse" markerWidth="16" orient="auto" refX="16" refY="6" viewBox="0 0 16 12"><path id="SvgjsPath1081" fill="#323232" stroke="#323232" stroke-width="2" d="M0,2 L14,6 L0,11 L0,2"/></marker><marker id="SvgjsMarker1084" stroke-dasharray="0 0" markerHeight="12" markerUnits="userSpaceOnUse" markerWidth="16" orient="auto" refX="16" refY="6" viewBox="0 0 16 12"><path id="SvgjsPath1085" fill="#323232" stroke="#323232" stroke-width="2" d="M0,2 L14,6 L0,11 L0,2"/></marker><marker id="SvgjsMarker1088" stroke-dasharray="0 0" markerHeight="12" markerUnits="userSpaceOnUse" markerWidth="16" orient="auto" refX="10" refY="6" viewBox="0 0 16 12"><path id="SvgjsPath1089" fill="#ff8000" stroke="#ff8000" stroke-width="1" d="M0,3 L10,6 L0,9 L0,3"/></marker><marker id="SvgjsMarker1092" stroke-dasharray="0 0" markerHeight="12" markerUnits="userSpaceOnUse" markerWidth="16" orient="auto" refX="10" refY="6" viewBox="0 0 16 12"><path id="SvgjsPath1093" fill="#ff8000" stroke="#ff8000" stroke-width="1" d="M0,3 L10,6 L0,9 L0,3"/></marker><marker id="SvgjsMarker1139" stroke-dasharray="0 0" markerHeight="12" markerUnits="userSpaceOnUse" markerWidth="16" orient="auto" refX="16" refY="6" viewBox="0 0 16 12"><path id="SvgjsPath1140" fill="#323232" stroke="#323232" stroke-width="2" d="M0,2 L14,6 L0,11 L0,2"/></marker><marker id="SvgjsMarker1143" stroke-dasharray="0 0" markerHeight="12" markerUnits="userSpaceOnUse" markerWidth="16" orient="auto" refX="10" refY="6" viewBox="0 0 16 12"><path id="SvgjsPath1144" fill="#50d890" stroke="#50d890" stroke-width="1" d="M0,3 L10,6 L0,9 L0,3"/></marker><marker id="SvgjsMarker1147" stroke-dasharray="0 0" markerHeight="12" markerUnits="userSpaceOnUse" markerWidth="16" orient="auto" refX="10" refY="6" viewBox="0 0 16 12"><path id="SvgjsPath1148" fill="#50d890" stroke="#50d890" stroke-width="1" d="M0,3 L10,6 L0,9 L0,3"/></marker><marker id="SvgjsMarker1196" stroke-dasharray="0 0" markerHeight="12" markerUnits="userSpaceOnUse" markerWidth="16" orient="auto" refX="10" refY="6" viewBox="0 0 16 12"><path id="SvgjsPath1197" fill="#50d890" stroke="#50d890" stroke-width="1" d="M0,3 L10,6 L0,9 L0,3"/></marker><marker id="SvgjsMarker1208" stroke-dasharray="0 0" markerHeight="12" markerUnits="userSpaceOnUse" markerWidth="16" orient="auto" refX="16" refY="6" viewBox="0 0 16 12"><path id="SvgjsPath1209" fill="#323232" stroke="#323232" stroke-width="2" d="M0,2 L14,6 L0,11 L0,2"/></marker><marker id="SvgjsMarker1212" stroke-dasharray="0 0" markerHeight="12" markerUnits="userSpaceOnUse" markerWidth="16" orient="auto" refX="10" refY="6" viewBox="0 0 16 12"><path id="SvgjsPath1213" fill="#ff8000" stroke="#ff8000" stroke-width="1" d="M0,3 L10,6 L0,9 L0,3"/></marker><marker id="SvgjsMarker1216" stroke-dasharray="0 0" markerHeight="12" markerUnits="userSpaceOnUse" markerWidth="16" orient="auto" refX="10" refY="6" viewBox="0 0 16 12"><path id="SvgjsPath1217" fill="#ff8000" stroke="#ff8000" stroke-width="1" d="M0,3 L10,6 L0,9 L0,3"/></marker><marker id="SvgjsMarker1234" stroke-dasharray="0 0" markerHeight="12" markerUnits="userSpaceOnUse" markerWidth="16" orient="auto" refX="10" refY="6" viewBox="0 0 16 12"><path id="SvgjsPath1235" fill="#50d890" stroke="#50d890" stroke-width="1" d="M0,3 L10,6 L0,9 L0,3"/></marker><marker id="SvgjsMarker1246" stroke-dasharray="0 0" markerHeight="12" markerUnits="userSpaceOnUse" markerWidth="16" orient="auto" refX="10" refY="6" viewBox="0 0 16 12"><path id="SvgjsPath1247" fill="#ff8000" stroke="#ff8000" stroke-width="1" d="M0,3 L10,6 L0,9 L0,3"/></marker><marker id="SvgjsMarker1250" stroke-dasharray="0 0" markerHeight="12" markerUnits="userSpaceOnUse" markerWidth="16" orient="auto" refX="10" refY="6" viewBox="0 0 16 12"><path id="SvgjsPath1251" fill="#ff8000" stroke="#ff8000" stroke-width="1" d="M0,3 L10,6 L0,9 L0,3"/></marker><marker id="SvgjsMarker1270" stroke-dasharray="0 0" markerHeight="12" markerUnits="userSpaceOnUse" markerWidth="16" orient="auto" refX="16" refY="6" viewBox="0 0 16 12"><path id="SvgjsPath1271" fill="#323232" stroke="#323232" stroke-width="2" d="M0,2 L14,6 L0,11 L0,2"/></marker><marker id="SvgjsMarker1274" stroke-dasharray="0 0" markerHeight="12" markerUnits="userSpaceOnUse" markerWidth="16" orient="auto" refX="16" refY="6" viewBox="0 0 16 12"><path id="SvgjsPath1275" fill="#7b88ff" stroke="#7b88ff" stroke-width="2" d="M0,2 L14,6 L0,11 L0,2"/></marker><marker id="SvgjsMarker1278" stroke-dasharray="0 0" markerHeight="12" markerUnits="userSpaceOnUse" markerWidth="16" orient="auto" refX="16" refY="6" viewBox="0 0 16 12"><path id="SvgjsPath1279" fill="#7b88ff" stroke="#7b88ff" stroke-width="2" d="M0,2 L14,6 L0,11 L0,2"/></marker><marker id="SvgjsMarker1308" stroke-dasharray="0 0" markerHeight="12" markerUnits="userSpaceOnUse" markerWidth="16" orient="auto" refX="10" refY="6" viewBox="0 0 16 12"><path id="SvgjsPath1309" fill="#323232" stroke="#323232" stroke-width="1" d="M0,3 L10,6 L0,9 L0,3"/></marker><marker id="SvgjsMarker1312" stroke-dasharray="0 0" markerHeight="12" markerUnits="userSpaceOnUse" markerWidth="16" orient="auto" refX="10" refY="6" viewBox="0 0 16 12"><path id="SvgjsPath1313" fill="#323232" stroke="#323232" stroke-width="1" d="M0,3 L10,6 L0,9 L0,3"/></marker><marker id="SvgjsMarker1332" stroke-dasharray="0 0" markerHeight="12" markerUnits="userSpaceOnUse" markerWidth="16" orient="auto" refX="16" refY="6" viewBox="0 0 16 12"><path id="SvgjsPath1333" fill="#7b88ff" stroke="#7b88ff" stroke-width="2" d="M0,2 L14,6 L0,11 L0,2"/></marker></defs><g id="SvgjsG1008" transform="translate(243.92920524691283,25.002025462964184)"><path id="SvgjsPath1009" fill="#fcc" fill-opacity="1" stroke="rgba(255,111,94,1)" stroke-width="2" d="M 0 0L 124.08333333333417 0L 124.08333333333417 43L 0 43Z"/><g id="SvgjsG1010"><text id="SvgjsText1011" width="105" y="11.55" fill="#323232" align="middle" anchor="middle" family="微软雅黑" font-family="微软雅黑" font-size="13" font-weight="700" opacity="1" size="13" text-anchor="middle" transform="rotate(0)" weight="700"><tspan id="SvgjsTspan1012" x="62.5" dy="16"><tspan id="SvgjsTspan1013">创建BeanA</tspan></tspan></text></g></g><g id="SvgjsG1014" transform="translate(509.92920524691283,25.002025462963957)"><path id="SvgjsPath1015" fill="#fcc" fill-opacity="1" stroke="rgba(255,111,94,1)" stroke-width="2" d="M 0 0L 124.08333333333417 0L 124.08333333333417 43L 0 43Z"/><g id="SvgjsG1016"><text id="SvgjsText1017" width="105" y="11.55" fill="#323232" align="middle" anchor="middle" family="微软雅黑" font-family="微软雅黑" font-size="13" font-weight="700" opacity="1" size="13" text-anchor="middle" transform="rotate(0)" weight="700"><tspan id="SvgjsTspan1018" x="62.5" dy="16"><tspan id="SvgjsTspan1019">创建BeanB</tspan></tspan></text></g></g><g id="SvgjsG1020" transform="translate(762.5385802469128,25.002025462963957)"><path id="SvgjsPath1021" fill="#fcc" fill-opacity="1" stroke="rgba(255,111,94,1)" stroke-width="2" d="M 0 0L 124.08333333333417 0L 124.08333333333417 43L 0 43Z"/><g id="SvgjsG1022"><text id="SvgjsText1023" width="105" y="11.55" fill="#323232" align="middle" anchor="middle" family="微软雅黑" font-family="微软雅黑" font-size="13" font-weight="700" opacity="1" size="13" text-anchor="middle" transform="rotate(0)" weight="700"><tspan id="SvgjsTspan1024" x="62.5" dy="16"><tspan id="SvgjsTspan1025">创建BeanA</tspan></tspan></text></g></g><g id="SvgjsG1026" transform="translate(411.7755594135799,526.3392469059891)"><path id="SvgjsPath1027" fill="#e3e7f1" fill-opacity="1" stroke="rgba(123,136,255,1)" stroke-width="2" d="M 0 4Q 0 0 4 0L 316.390625 0Q 320.390625 0 320.390625 4L 320.390625 220.00247763104744Q 320.390625 224.00247763104744 316.390625 224.00247763104744L 4 224.00247763104744Q 0 224.00247763104744 0 220.00247763104744Z"/></g><g id="SvgjsG1032" transform="translate(454.7755594135799,563.3417245370365)"><path id="SvgjsPath1033" fill="#e3e7f1" fill-opacity="1" stroke="rgba(123,136,255,1)" stroke-width="2" d="M 0 4Q 0 0 4 0L 230.390625 0Q 234.390625 0 234.390625 4L 234.390625 34.00247763104744Q 234.390625 38.00247763104744 230.390625 38.00247763104744L 4 38.00247763104744Q 0 38.00247763104744 0 34.00247763104744Z"/><g id="SvgjsG1034"><text id="SvgjsText1035" width="215" y="9.051" fill="#323232" align="middle" anchor="middle" family="微软雅黑" font-family="微软雅黑" font-size="13" font-weight="700" opacity="1" size="13" text-anchor="middle" transform="rotate(0)" weight="700"><tspan id="SvgjsTspan1036" x="117.5" dy="16"><tspan id="SvgjsTspan1037">一级缓存singletonObjects</tspan></tspan></text></g></g><g id="SvgjsG1038" transform="translate(454.7755594135799,625.3417245370365)"><path id="SvgjsPath1039" fill="#e3e7f1" fill-opacity="1" stroke="rgba(123,136,255,1)" stroke-width="2" d="M 0 4Q 0 0 4 0L 230.390625 0Q 234.390625 0 234.390625 4L 234.390625 34.00247763104744Q 234.390625 38.00247763104744 230.390625 38.00247763104744L 4 38.00247763104744Q 0 38.00247763104744 0 34.00247763104744Z"/><g id="SvgjsG1040"><text id="SvgjsText1041" width="215" y="9.051" fill="#323232" align="middle" anchor="middle" family="微软雅黑" font-family="微软雅黑" font-size="13" font-weight="700" opacity="1" size="13" text-anchor="middle" transform="rotate(0)" weight="700"><tspan id="SvgjsTspan1042" x="117.5" dy="16"><tspan id="SvgjsTspan1043">二级缓存earlySingletonObjects</tspan></tspan></text></g></g><g id="SvgjsG1044" transform="translate(454.7755594135799,690.341724537037)"><path id="SvgjsPath1045" fill="#e3e7f1" fill-opacity="1" stroke="rgba(123,136,255,1)" stroke-width="2" d="M 0 4Q 0 0 4 0L 230.390625 0Q 234.390625 0 234.390625 4L 234.390625 34.00247763104744Q 234.390625 38.00247763104744 230.390625 38.00247763104744L 4 38.00247763104744Q 0 38.00247763104744 0 34.00247763104744Z"/><g id="SvgjsG1046"><text id="SvgjsText1047" width="215" y="9.051" fill="#323232" align="middle" anchor="middle" family="微软雅黑" font-family="微软雅黑" font-size="13" font-weight="700" opacity="1" size="13" text-anchor="middle" transform="rotate(0)" weight="700"><tspan id="SvgjsTspan1048" x="117.5" dy="16"><tspan id="SvgjsTspan1049">三级缓存singletonFactories</tspan></tspan></text></g></g><g id="SvgjsG1050" transform="translate(521.9708719135799,531.8417245370365)"><path id="SvgjsPath1051" fill="none" stroke="none" d="M 0 0L 100 0L 100 25L 0 25Z"/><g id="SvgjsG1052"><text id="SvgjsText1053" width="100" y="2.55" fill="#323232" align="middle" anchor="middle" family="微软雅黑" font-family="微软雅黑" font-size="13" font-weight="700" opacity="1" size="13" text-anchor="middle" transform="rotate(0)" weight="700"><tspan id="SvgjsTspan1054" x="50" dy="16"><tspan id="SvgjsTspan1055">三级缓存</tspan></tspan></text></g></g><g id="SvgjsG1056" transform="translate(253.5333719135799,128.52097196248997)"><path id="SvgjsPath1057" fill="#ffe6cc" fill-opacity="1" stroke="rgba(255,111,94,1)" stroke-width="2" d="M 0 0L 104.875 0L 104.875 33.67939814814781L 0 33.67939814814781Z"/><g id="SvgjsG1058"><text id="SvgjsText1059" width="85" y="6.89" fill="#323232" align="middle" anchor="middle" family="微软雅黑" font-family="微软雅黑" font-size="13" font-weight="700" opacity="1" size="13" text-anchor="middle" transform="rotate(0)" weight="700"><tspan id="SvgjsTspan1060" x="52.5" dy="16"><tspan id="SvgjsTspan1061">doGetBean</tspan></tspan></text></g></g><g id="SvgjsG1062" transform="translate(519.5333719135799,128.52097196248997)"><path id="SvgjsPath1063" fill="#ffe6cc" fill-opacity="1" stroke="rgba(255,111,94,1)" stroke-width="2" d="M 0 0L 104.875 0L 104.875 33.67939814814781L 0 33.67939814814781Z"/><g id="SvgjsG1064"><text id="SvgjsText1065" width="85" y="6.89" fill="#323232" align="middle" anchor="middle" family="微软雅黑" font-family="微软雅黑" font-size="13" font-weight="700" opacity="1" size="13" text-anchor="middle" transform="rotate(0)" weight="700"><tspan id="SvgjsTspan1066" x="52.5" dy="16"><tspan id="SvgjsTspan1067">doGetBean</tspan></tspan></text></g></g><g id="SvgjsG1068" transform="translate(772.14274691358,128.52097196248997)"><path id="SvgjsPath1069" fill="#ffe6cc" fill-opacity="1" stroke="rgba(255,111,94,1)" stroke-width="2" d="M 0 0L 104.875 0L 104.875 33.67939814814781L 0 33.67939814814781Z"/><g id="SvgjsG1070"><text id="SvgjsText1071" width="85" y="6.89" fill="#323232" align="middle" anchor="middle" family="微软雅黑" font-family="微软雅黑" font-size="13" font-weight="700" opacity="1" size="13" text-anchor="middle" transform="rotate(0)" weight="700"><tspan id="SvgjsTspan1072" x="52.5" dy="16"><tspan id="SvgjsTspan1073">doGetBean</tspan></tspan></text></g></g><g id="SvgjsG1074"><path id="SvgjsPath1075" fill="none" stroke="#ff8000" stroke-width="1" marker-end="url(#SvgjsMarker1076)" d="M305.9708719135799 68.00202546296441L305.9708719135799 98.26149871272719L305.9708719135799 98.26149871272719L305.9708719135799 128.52097196248997"/></g><g id="SvgjsG1078"><path id="SvgjsPath1079" fill="none" stroke="#323232" stroke-width="2" marker-end="url(#SvgjsMarker1080)" d="M571.9708719135799 68.00202546296396L571.9708719135799 98.26149871272719L571.9708719135799 98.26149871272719L571.9708719135799 128.52097196248997"/></g><g id="SvgjsG1082"><path id="SvgjsPath1083" fill="none" stroke="#323232" stroke-width="2" marker-end="url(#SvgjsMarker1084)" d="M824.5802469135801 68.00202546296396L824.5802469135801 98.26149871272719L824.5802469135801 98.26149871272719L824.5802469135801 128.52097196248997"/></g><g id="SvgjsG1086"><path id="SvgjsPath1087" fill="none" stroke="#ff8000" stroke-width="1" marker-end="url(#SvgjsMarker1088)" d="M253.5333719135799 145.36067103656387C 55.140695872643164 145.36067103656387 32.012538580246996 626.3417245370365 412.012538580247 615.3417245370365"/></g><g id="SvgjsG1090"><path id="SvgjsPath1091" fill="none" stroke="#ff8000" stroke-width="1" marker-end="url(#SvgjsMarker1092)" d="M412.012538580247 616.3417245370365C 117.012538580247 627.3417245370365 54.76162381087738 145.36067103656387 253.5333719135799 145.36067103656387"/></g><g id="SvgjsG1094" transform="translate(33.58121141975312,410.3417245370365)"><path id="SvgjsPath1095" fill="none" stroke="none" d="M 0 0L 120 0L 120 40L 0 40Z"/><g id="SvgjsG1096"><text id="SvgjsText1097" width="120" y="2.05" fill="#ff6f5e" align="middle" anchor="middle" family="微软雅黑" font-family="微软雅黑" font-size="13" font-weight="700" opacity="1" size="13" text-anchor="middle" transform="rotate(0)" weight="700"><tspan id="SvgjsTspan1098" x="60" dy="16"><tspan id="SvgjsTspan1099">第一次从缓存中</tspan></tspan><tspan id="SvgjsTspan1100" x="60" dy="16"><tspan id="SvgjsTspan1101">获取BeanA</tspan></tspan></text></g></g><g id="SvgjsG1102" transform="translate(87.92920524691283,337.68127288841606)"><path id="SvgjsPath1103" fill="none" stroke="none" d="M 0 0L 120 0L 120 40L 0 40Z"/><g id="SvgjsG1104"><text id="SvgjsText1105" width="120" y="10.05" fill="#ff6f5e" align="middle" anchor="middle" family="微软雅黑" font-family="微软雅黑" font-size="13" font-weight="700" opacity="1" size="13" text-anchor="middle" transform="rotate(0)" weight="700"><tspan id="SvgjsTspan1106" x="60" dy="16"><tspan id="SvgjsTspan1107">未获取到</tspan></tspan></text></g></g><g id="SvgjsG1108" transform="translate(205.9083719135799,235.16015020322993)"><path id="SvgjsPath1109" fill="#effffb" fill-opacity="1" stroke="rgba(80,216,144,1)" stroke-width="2" d="M 0 0L 200.125 0L 200.125 255.18157433380657L 0 255.18157433380657Z"/></g><g id="SvgjsG1112" transform="translate(240.3771219135799,284.9829282407409)"><path id="SvgjsPath1113" fill="#effffb" fill-opacity="1" stroke="rgba(80,216,144,1)" stroke-width="2" d="M 0 0L 139.125 0L 139.125 31.67939814814781L 0 31.67939814814781Z"/><g id="SvgjsG1114"><text id="SvgjsText1115" width="120" y="5.89" fill="#323232" align="middle" anchor="middle" family="微软雅黑" font-family="微软雅黑" font-size="13" font-weight="700" opacity="1" size="13" text-anchor="middle" transform="rotate(0)" weight="700"><tspan id="SvgjsTspan1116" x="70" dy="16"><tspan id="SvgjsTspan1117">实例化instantiate</tspan></tspan></text></g></g><g id="SvgjsG1118" transform="translate(240.3771219135799,341.84157381434215)"><path id="SvgjsPath1119" fill="#effffb" fill-opacity="1" stroke="rgba(80,216,144,1)" stroke-width="2" d="M 0 0L 139.125 0L 139.125 31.67939814814781L 0 31.67939814814781Z"/><g id="SvgjsG1120"><text id="SvgjsText1121" width="120" y="5.89" fill="#323232" align="middle" anchor="middle" family="微软雅黑" font-family="微软雅黑" font-size="13" font-weight="700" opacity="1" size="13" text-anchor="middle" transform="rotate(0)" weight="700"><tspan id="SvgjsTspan1122" x="70" dy="16"><tspan id="SvgjsTspan1123">添加三级缓存</tspan></tspan></text></g></g><g id="SvgjsG1124" transform="translate(240.3771219135799,399.9829282407409)"><path id="SvgjsPath1125" fill="#effffb" fill-opacity="1" stroke="rgba(80,216,144,1)" stroke-width="2" d="M 0 0L 139.125 0L 139.125 31.67939814814781L 0 31.67939814814781Z"/><g id="SvgjsG1126"><text id="SvgjsText1127" width="120" y="5.89" fill="#323232" align="middle" anchor="middle" family="微软雅黑" font-family="微软雅黑" font-size="13" font-weight="700" opacity="1" size="13" text-anchor="middle" transform="rotate(0)" weight="700"><tspan id="SvgjsTspan1128" x="70" dy="16"><tspan id="SvgjsTspan1129">属性填充</tspan><tspan id="SvgjsTspan1130" style="font-size:inherit">populate</tspan></tspan></text></g></g><g id="SvgjsG1131" transform="translate(249.9396219135799,239.3417245370365)"><path id="SvgjsPath1132" fill="none" stroke="none" d="M 0 0L 120 0L 120 40L 0 40Z"/><g id="SvgjsG1133"><text id="SvgjsText1134" width="120" y="10.05" fill="#323232" align="middle" anchor="middle" family="微软雅黑" font-family="微软雅黑" font-size="13" font-weight="700" opacity="1" size="13" text-anchor="middle" transform="rotate(0)" weight="700"><tspan id="SvgjsTspan1135" x="60" dy="16"><tspan id="SvgjsTspan1136">doCreateBean</tspan></tspan></text></g></g><g id="SvgjsG1137"><path id="SvgjsPath1138" fill="none" stroke="#323232" stroke-width="2" marker-end="url(#SvgjsMarker1139)" d="M305.9708719135799 162.20037011063778C 305.9708719135799 191.38428214767464 305.9708719135799 205.97623816619307 305.9708719135799 235.16015020322993"/></g><g id="SvgjsG1141"><path id="SvgjsPath1142" fill="none" stroke="#50d890" stroke-width="1" marker-end="url(#SvgjsMarker1143)" d="M240.3771219135799 357.68127288841606C 25.012538580246996 513.3417245370365 286.012538580247 772.3417245370365 454.7755594135799 709.3429633525607"/></g><g id="SvgjsG1145"><path id="SvgjsPath1146" fill="none" stroke="#50d890" stroke-width="1" marker-end="url(#SvgjsMarker1147)" d="M379.5021219135799 415.8226273148148C 480.012538580247 368.3417245370365 353.25939653110265 46.50202546296396 509.92920524691283 46.50202546296396"/></g><g id="SvgjsG1149" transform="translate(103.887538580247,556.8417245370365)"><path id="SvgjsPath1150" fill="none" stroke="none" d="M 0 0L 120 0L 120 40L 0 40Z"/><g id="SvgjsG1151"><text id="SvgjsText1152" width="120" y="2.05" fill="#50d890" align="middle" anchor="middle" family="微软雅黑" font-family="微软雅黑" font-size="13" font-weight="700" opacity="1" size="13" text-anchor="middle" transform="rotate(0)" weight="700"><tspan id="SvgjsTspan1153" x="60" dy="16"><tspan id="SvgjsTspan1154">将BeanA工厂对象</tspan></tspan><tspan id="SvgjsTspan1155" x="60" dy="16"><tspan id="SvgjsTspan1156">放入三级缓存</tspan></tspan></text></g></g><g id="SvgjsG1157" transform="translate(340.9396219135799,77.52097196248997)"><path id="SvgjsPath1158" fill="none" stroke="none" d="M 0 0L 120 0L 120 40L 0 40Z"/><g id="SvgjsG1159"><text id="SvgjsText1160" width="120" y="2.05" fill="#50d890" align="middle" anchor="middle" family="微软雅黑" font-family="微软雅黑" font-size="13" font-weight="700" opacity="1" size="13" text-anchor="middle" transform="rotate(0)" weight="700"><tspan id="SvgjsTspan1161" x="60" dy="16"><tspan id="SvgjsTspan1162">属性填充</tspan></tspan><tspan id="SvgjsTspan1163" x="60" dy="16"><tspan id="SvgjsTspan1164">依赖BeanB</tspan></tspan></text></g></g><g id="SvgjsG1165" transform="translate(471.9083719135799,235.16015020322993)"><path id="SvgjsPath1166" fill="#effffb" fill-opacity="1" stroke="rgba(80,216,144,1)" stroke-width="2" d="M 0 0L 200.125 0L 200.125 215.1815743338068L 0 215.1815743338068Z"/></g><g id="SvgjsG1169" transform="translate(506.3771219135799,284.9829282407409)"><path id="SvgjsPath1170" fill="#effffb" fill-opacity="1" stroke="rgba(80,216,144,1)" stroke-width="2" d="M 0 0L 139.125 0L 139.125 31.67939814814781L 0 31.67939814814781Z"/><g id="SvgjsG1171"><text id="SvgjsText1172" width="120" y="5.89" fill="#323232" align="middle" anchor="middle" family="微软雅黑" font-family="微软雅黑" font-size="13" font-weight="700" opacity="1" size="13" text-anchor="middle" transform="rotate(0)" weight="700"><tspan id="SvgjsTspan1173" x="70" dy="16"><tspan id="SvgjsTspan1174">实例化instantiate</tspan></tspan></text></g></g><g id="SvgjsG1175" transform="translate(506.3771219135799,341.84157381434215)"><path id="SvgjsPath1176" fill="#effffb" fill-opacity="1" stroke="rgba(80,216,144,1)" stroke-width="2" d="M 0 0L 139.125 0L 139.125 31.67939814814781L 0 31.67939814814781Z"/><g id="SvgjsG1177"><text id="SvgjsText1178" width="120" y="5.89" fill="#323232" align="middle" anchor="middle" family="微软雅黑" font-family="微软雅黑" font-size="13" font-weight="700" opacity="1" size="13" text-anchor="middle" transform="rotate(0)" weight="700"><tspan id="SvgjsTspan1179" x="70" dy="16"><tspan id="SvgjsTspan1180">添加三级缓存</tspan></tspan></text></g></g><g id="SvgjsG1181" transform="translate(506.3771219135799,399.9829282407409)"><path id="SvgjsPath1182" fill="#effffb" fill-opacity="1" stroke="rgba(80,216,144,1)" stroke-width="2" d="M 0 0L 139.125 0L 139.125 31.67939814814781L 0 31.67939814814781Z"/><g id="SvgjsG1183"><text id="SvgjsText1184" width="120" y="5.89" fill="#323232" align="middle" anchor="middle" family="微软雅黑" font-family="微软雅黑" font-size="13" font-weight="700" opacity="1" size="13" text-anchor="middle" transform="rotate(0)" weight="700"><tspan id="SvgjsTspan1185" x="70" dy="16"><tspan id="SvgjsTspan1186">属性填充</tspan><tspan id="SvgjsTspan1187" style="font-size:inherit">populate</tspan></tspan></text></g></g><g id="SvgjsG1188" transform="translate(515.9396219135799,239.3417245370365)"><path id="SvgjsPath1189" fill="none" stroke="none" d="M 0 0L 120 0L 120 40L 0 40Z"/><g id="SvgjsG1190"><text id="SvgjsText1191" width="120" y="10.05" fill="#323232" align="middle" anchor="middle" family="微软雅黑" font-family="微软雅黑" font-size="13" font-weight="700" opacity="1" size="13" text-anchor="middle" transform="rotate(0)" weight="700"><tspan id="SvgjsTspan1192" x="60" dy="16"><tspan id="SvgjsTspan1193">doCreateBean</tspan></tspan></text></g></g><g id="SvgjsG1194"><path id="SvgjsPath1195" fill="none" stroke="#50d890" stroke-width="1" marker-end="url(#SvgjsMarker1196)" d="M506.3771219135799 357.68127288841606C 446.012538580247 443.3417245370365 277.012538580247 530.3417245370365 454.7755594135799 709.3429633525607"/></g><g id="SvgjsG1198" transform="translate(302.887538580247,516.8417245370365)"><path id="SvgjsPath1199" fill="none" stroke="none" d="M 0 0L 120 0L 120 40L 0 40Z"/><g id="SvgjsG1200"><text id="SvgjsText1201" width="120" y="2.05" fill="#50d890" align="middle" anchor="middle" family="微软雅黑" font-family="微软雅黑" font-size="13" font-weight="700" opacity="1" size="13" text-anchor="middle" transform="rotate(0)" weight="700"><tspan id="SvgjsTspan1202" x="60" dy="16"><tspan id="SvgjsTspan1203">属性填充</tspan></tspan><tspan id="SvgjsTspan1204" x="60" dy="16"><tspan id="SvgjsTspan1205">依赖BeanB</tspan></tspan></text></g></g><g id="SvgjsG1206"><path id="SvgjsPath1207" fill="none" stroke="#323232" stroke-width="2" marker-end="url(#SvgjsMarker1208)" d="M571.9708719135799 162.20037011063778L571.9708719135799 235.16015020322993"/></g><g id="SvgjsG1210"><path id="SvgjsPath1211" fill="none" stroke="#ff8000" stroke-width="1" marker-end="url(#SvgjsMarker1212)" d="M624.4083719135799 145.36067103656387C 782.012538580247 225.3417245370365 804.012538580247 392.3417245370365 714.012538580247 526.3417245370365"/></g><g id="SvgjsG1214"><path id="SvgjsPath1215" fill="none" stroke="#ff8000" stroke-width="1" marker-end="url(#SvgjsMarker1216)" d="M694.012538580247 526.3417245370365C 770.012538580247 380.3417245370365 779.3232146594918 145.36067103656387 624.4083719135799 145.36067103656387"/></g><g id="SvgjsG1218" transform="translate(726.5812114197532,427.3417245370365)"><path id="SvgjsPath1219" fill="none" stroke="none" d="M 0 0L 120 0L 120 40L 0 40Z"/><g id="SvgjsG1220"><text id="SvgjsText1221" width="120" y="2.05" fill="#ff6f5e" align="middle" anchor="middle" family="微软雅黑" font-family="微软雅黑" font-size="13" font-weight="700" opacity="1" size="13" text-anchor="middle" transform="rotate(0)" weight="700"><tspan id="SvgjsTspan1222" x="60" dy="16"><tspan id="SvgjsTspan1223">第一次从缓存中</tspan></tspan><tspan id="SvgjsTspan1224" x="60" dy="16"><tspan id="SvgjsTspan1225">获取BeanB</tspan></tspan></text></g></g><g id="SvgjsG1226" transform="translate(668.9292052469128,354.68127288841606)"><path id="SvgjsPath1227" fill="none" stroke="none" d="M 0 0L 120 0L 120 40L 0 40Z"/><g id="SvgjsG1228"><text id="SvgjsText1229" width="120" y="10.05" fill="#ff6f5e" align="middle" anchor="middle" family="微软雅黑" font-family="微软雅黑" font-size="13" font-weight="700" opacity="1" size="13" text-anchor="middle" transform="rotate(0)" weight="700"><tspan id="SvgjsTspan1230" x="60" dy="16"><tspan id="SvgjsTspan1231">未获取到</tspan></tspan></text></g></g><g id="SvgjsG1232"><path id="SvgjsPath1233" fill="none" stroke="#50d890" stroke-width="1" marker-end="url(#SvgjsMarker1234)" d="M645.50212191358 415.8226273148148C 760.012538580247 387.3417245370365 607.570072720294 46.50202546296396 762.5385802469128 46.50202546296396"/></g><g id="SvgjsG1236" transform="translate(599.012538580247,77.52097196248997)"><path id="SvgjsPath1237" fill="none" stroke="none" d="M 0 0L 120 0L 120 40L 0 40Z"/><g id="SvgjsG1238"><text id="SvgjsText1239" width="120" y="2.05" fill="#50d890" align="middle" anchor="middle" family="微软雅黑" font-family="微软雅黑" font-size="13" font-weight="700" opacity="1" size="13" text-anchor="middle" transform="rotate(0)" weight="700"><tspan id="SvgjsTspan1240" x="60" dy="16"><tspan id="SvgjsTspan1241">属性填充</tspan></tspan><tspan id="SvgjsTspan1242" x="60" dy="16"><tspan id="SvgjsTspan1243">依赖BeanA</tspan></tspan></text></g></g><g id="SvgjsG1244"><path id="SvgjsPath1245" fill="none" stroke="#ff8000" stroke-width="1" marker-end="url(#SvgjsMarker1246)" d="M877.0177469135801 145.36067103656387C 1004.0125385802471 237.3417245370365 921.8812861580159 597.3417245370365 732.012538580247 597.3417245370365"/></g><g id="SvgjsG1248"><path id="SvgjsPath1249" fill="none" stroke="#ff8000" stroke-width="1" marker-end="url(#SvgjsMarker1250)" d="M984.4109760802471 672.0929633525607C 1084.012538580247 480.3417245370365 1092.0452664321047 145.36067103656387 877.0177469135801 145.36067103656387"/></g><g id="SvgjsG1252" transform="translate(853.5812114197533,365.3417245370365)"><path id="SvgjsPath1253" fill="none" stroke="none" d="M 0 0L 120 0L 120 40L 0 40Z"/><g id="SvgjsG1254"><text id="SvgjsText1255" width="120" y="2.05" fill="#ff6f5e" align="middle" anchor="middle" family="微软雅黑" font-family="微软雅黑" font-size="13" font-weight="700" opacity="1" size="13" text-anchor="middle" transform="rotate(0)" weight="700"><tspan id="SvgjsTspan1256" x="60" dy="16"><tspan id="SvgjsTspan1257">第二次从缓存中</tspan></tspan><tspan id="SvgjsTspan1258" x="60" dy="16"><tspan id="SvgjsTspan1259">获取BeanA</tspan></tspan></text></g></g><g id="SvgjsG1260" transform="translate(898.7000385802471,548.8417245370365)"><path id="SvgjsPath1261" fill="none" stroke="none" d="M 0 0L 134.65625 0L 134.65625 36.5L 0 36.5Z"/><g id="SvgjsG1262"><text id="SvgjsText1263" width="135" y=".3" fill="#ff6f5e" align="middle" anchor="middle" family="微软雅黑" font-family="微软雅黑" font-size="13" font-weight="700" opacity="1" size="13" text-anchor="middle" transform="rotate(0)" weight="700"><tspan id="SvgjsTspan1264" x="67.5" dy="16"><tspan id="SvgjsTspan1265">从三级缓存中获取</tspan></tspan><tspan id="SvgjsTspan1266" x="67.5" dy="16"><tspan id="SvgjsTspan1267">到了BeanA的代理对象</tspan></tspan></text></g></g><g id="SvgjsG1268"><path id="SvgjsPath1269" fill="none" stroke="#323232" stroke-width="2" marker-end="url(#SvgjsMarker1270)" d="M848.0125385802471 129.3417245370365C 848.0125385802471 104.54172453703632 848.0125385802471 92.14172453703668 848.0125385802471 67.3417245370365"/></g><g id="SvgjsG1272"><path id="SvgjsPath1273" fill="none" stroke="#7b88ff" stroke-width="2" marker-end="url(#SvgjsMarker1274)" d="M571.9708719135799 450.3417245370365C 571.9708719135799 528.5576183690191 422.012538580247 468.3417245370365 379.5021219135799 415.8226273148148"/></g><g id="SvgjsG1276"><path id="SvgjsPath1277" fill="none" stroke="#7b88ff" stroke-width="2" marker-end="url(#SvgjsMarker1278)" d="M762.9517695922958 58.64713182636888C 692.012538580247 110.3417245370365 773.012538580247 354.3417245370365 645.50212191358 415.8226273148148"/></g><g id="SvgjsG1280" transform="translate(857.6219135802471,90.3417245370365)"><path id="SvgjsPath1281" fill="none" stroke="none" d="M 0 0L 45 0L 45 23L 0 23Z"/><g id="SvgjsG1282"><text id="SvgjsText1283" width="45" y="1.55" fill="#7b88ff" align="middle" anchor="middle" family="微软雅黑" font-family="微软雅黑" font-size="13" font-weight="700" opacity="1" size="13" text-anchor="middle" transform="rotate(0)" weight="700"><tspan id="SvgjsTspan1284" x="22.5" dy="16"><tspan id="SvgjsTspan1285">返回</tspan></tspan></text></g></g><g id="SvgjsG1286" transform="translate(706.4292052469128,113.3417245370365)"><path id="SvgjsPath1287" fill="none" stroke="none" d="M 0 0L 45 0L 45 23L 0 23Z"/><g id="SvgjsG1288"><text id="SvgjsText1289" width="45" y="1.55" fill="#7b88ff" align="middle" anchor="middle" family="微软雅黑" font-family="微软雅黑" font-size="13" font-weight="700" opacity="1" size="13" text-anchor="middle" transform="rotate(0)" weight="700"><tspan id="SvgjsTspan1290" x="22.5" dy="16"><tspan id="SvgjsTspan1291">返回</tspan></tspan></text></g></g><g id="SvgjsG1292" transform="translate(470.9396219135799,483.02097196248997)"><path id="SvgjsPath1293" fill="none" stroke="none" d="M 0 0L 45 0L 45 23L 0 23Z"/><g id="SvgjsG1294"><text id="SvgjsText1295" width="45" y="1.55" fill="#7b88ff" align="middle" anchor="middle" family="微软雅黑" font-family="微软雅黑" font-size="13" font-weight="700" opacity="1" size="13" text-anchor="middle" transform="rotate(0)" weight="700"><tspan id="SvgjsTspan1296" x="22.5" dy="16"><tspan id="SvgjsTspan1297">返回</tspan></tspan></text></g></g><g id="SvgjsG1298" transform="translate(803.8094135802468,672.0929633525607)"><path id="SvgjsPath1299" fill="#e5e5e5" fill-opacity="1" stroke="rgba(161,161,161,1)" stroke-width="2" d="M 0 0L 361.2031250000002 0L 361.2031250000002 74.5L 0 74.5Z"/><g id="SvgjsG1300"><text id="SvgjsText1301" width="342" y="19.3" fill="#323232" align="middle" anchor="middle" family="微软雅黑" font-family="微软雅黑" font-size="13" font-weight="700" opacity="1" size="13" text-anchor="middle" transform="rotate(0)" weight="700"><tspan id="SvgjsTspan1302" x="181" dy="16"><tspan id="SvgjsTspan1303">AbstractAutoProxyCreator#getEarlyBeanReference</tspan></tspan><tspan id="SvgjsTspan1304" x="181" dy="16"><tspan id="SvgjsTspan1305">返回BeanA的代理对象</tspan></tspan></text></g></g><g id="SvgjsG1306"><path id="SvgjsPath1307" fill="none" stroke="#323232" stroke-width="1" marker-end="url(#SvgjsMarker1308)" d="M689.16618441358 709.3429633525607C 736.5746417290942 709.3429633525607 756.7578476444652 742.8635536476572 803.9859014668892 738.7316343378029"/></g><g id="SvgjsG1310"><path id="SvgjsPath1311" fill="none" stroke="#323232" stroke-width="1" marker-end="url(#SvgjsMarker1312)" d="M804.012538580247 687.3417245370365C 754.9597857053674 687.3417245370365 738.2189372884596 644.3429633525602 689.16618441358 644.3429633525602"/></g><g id="SvgjsG1314" transform="translate(124.94579475308615,764.5929633525607)"><path id="SvgjsPath1315" fill="#effffb" fill-opacity="1" stroke="rgba(80,216,144,1)" stroke-width="2" d="M 0 0L 143.63541666666708 0L 143.63541666666708 52.748761184475825L 0 52.748761184475825Z"/><g id="SvgjsG1316"><text id="SvgjsText1317" width="124" y=".424" fill="#323232" align="middle" anchor="middle" family="微软雅黑" font-family="微软雅黑" font-size="13" font-weight="700" opacity="1" size="13" text-anchor="middle" transform="rotate(0)" weight="700"><tspan id="SvgjsTspan1318" x="72" dy="16"><tspan id="SvgjsTspan1319">从二级缓存中获取到</tspan></tspan><tspan id="SvgjsTspan1320" x="72" dy="16"><tspan id="SvgjsTspan1321">了BeanA代理对象并</tspan></tspan><tspan id="SvgjsTspan1322" x="72" dy="16"><tspan id="SvgjsTspan1323">返回</tspan></tspan></text></g></g><g id="SvgjsG1324" transform="translate(236.4083719135799,447.9829282407409)"><path id="SvgjsPath1325" fill="#effffb" fill-opacity="1" stroke="rgba(80,216,144,1)" stroke-width="2" d="M 0 0L 139.125 0L 139.125 31.67939814814781L 0 31.67939814814781Z"/><g id="SvgjsG1326"><text id="SvgjsText1327" width="120" y="5.89" fill="#323232" align="middle" anchor="middle" family="微软雅黑" font-family="微软雅黑" font-size="13" font-weight="700" opacity="1" size="13" text-anchor="middle" transform="rotate(0)" weight="700"><tspan id="SvgjsTspan1328" x="70" dy="16"><tspan id="SvgjsTspan1329">后置处理</tspan></tspan></text></g></g><g id="SvgjsG1330"><path id="SvgjsPath1331" fill="none" stroke="#7b88ff" stroke-width="2" marker-end="url(#SvgjsMarker1332)" d="M305.9708719135799 490.3417245370365C 305.9708719135799 608.4196590704632 196.76350308641975 646.5150288191339 196.76350308641975 764.5929633525607"/></g></svg>